<svg width="135" height="35" viewBox="0 0 135 35" fill="none" xmlns="http://www.w3.org/2000/svg">
<path d="M1.41553 34.3704C1.03069 34.3704 0.616252 34.2519 0.320223 33.8963C0.142606 33.6889 -0.212628 33.1259 0.17221 32.2667C0.438636 31.6444 1.82997 29.1259 2.45163 27.9407C1.56355 26.3407 1.1491 24.4741 1.1491 22.4V11.3778C1.1491 5.12593 6.2408 0 12.5166 0H23.5289C29.7751 0 34.8964 5.0963 34.8964 11.3778V22.4C34.8964 28.6518 29.8047 33.7778 23.5289 33.7778H12.5166C10.1188 33.7778 8.313 33.2444 6.53683 32L6.32961 32.0889L2.0964 34.2519C2.0964 34.2519 1.94838 34.3111 1.85957 34.3407C1.74116 34.3704 1.59315 34.4 1.41553 34.4M6.68484 29.5111C6.95127 29.5111 7.18809 29.6 7.39531 29.7481C8.93466 30.963 10.3852 31.437 12.487 31.437H23.4993C28.4726 31.437 32.5282 27.3778 32.5282 22.4V11.3778C32.5282 6.4 28.4726 2.34074 23.4993 2.34074H12.487C7.51373 2.34074 3.45813 6.4 3.45813 11.3778V22.4C3.45813 24.2963 3.90217 25.9259 4.76066 27.2889C4.99748 27.6444 4.99748 28.0889 4.79026 28.4741C4.49423 29.0074 3.96138 29.9852 3.48773 30.9037L5.29351 29.9852C5.29351 29.9852 5.35271 29.9852 5.38232 29.9556L6.2408 29.6C6.2408 29.6 6.53683 29.5111 6.68484 29.5111Z" fill="#FFBC00"/>
<path d="M25.2756 12.3259C25.0684 12.0296 24.7132 11.8222 24.3283 11.8222H13.0496L12.4872 10.3111C12.3096 9.86661 11.8951 9.57031 11.3919 9.57031H9.37888C8.72761 9.57031 8.22437 10.1036 8.22437 10.7259C8.22437 11.3481 8.75722 11.8814 9.37888 11.8814H10.5926L11.1551 13.3629L13.2273 19.9407C13.3753 20.4148 13.8193 20.7407 14.3226 20.7407H22.0193C22.5226 20.7407 22.937 20.4148 23.1146 19.9703L25.4236 13.3629C25.5421 13.0074 25.4828 12.6222 25.2756 12.2962M21.1904 18.4296H15.181L13.8489 14.1629H22.7298L21.22 18.4296H21.1904Z" fill="#FFBC00"/>
<path d="M15.4178 22.8448C15.4178 23.7633 14.6777 24.5041 13.7601 24.5041C12.8424 24.5041 12.1023 23.7633 12.1023 22.8448C12.1023 21.9263 12.8424 21.1855 13.7601 21.1855C14.6777 21.1855 15.4178 21.9263 15.4178 22.8448Z" fill="#FFBC00"/>
<path d="M24.4764 22.8448C24.4764 23.7633 23.7363 24.5041 22.8187 24.5041C21.901 24.5041 21.1609 23.7633 21.1609 22.8448C21.1609 21.9263 21.901 21.1855 22.8187 21.1855C23.7363 21.1855 24.4764 21.9263 24.4764 22.8448Z" fill="#FFBC00"/>
<path d="M47.8329 24.6227C46.7672 24.6227 45.7903 24.4153 44.9318 24.0005C44.0733 23.5857 43.3333 23.0227 42.7116 22.3413C42.0899 21.6598 41.6163 20.8598 41.2611 19.9709C40.9058 19.082 40.7578 18.1635 40.7578 17.245C40.7578 16.3264 40.9354 15.3487 41.2907 14.4598C41.6459 13.5709 42.1491 12.8005 42.7708 12.0894C43.3925 11.4079 44.1621 10.8746 45.0206 10.4598C45.9087 10.045 46.856 9.86719 47.8625 9.86719C48.869 9.86719 49.8755 10.0746 50.734 10.519C51.5925 10.9635 52.3325 11.5264 52.9542 12.2079C53.5759 12.919 54.0495 13.6894 54.3751 14.5783C54.7304 15.4672 54.8784 16.3561 54.8784 17.2746C54.8784 18.2524 54.7008 19.1709 54.3455 20.0598C53.9903 20.9487 53.4871 21.719 52.8654 22.4005C52.2437 23.082 51.4741 23.6153 50.6156 24.0301C49.7275 24.445 48.7802 24.6227 47.7737 24.6227M43.5997 17.245C43.5997 17.8672 43.6885 18.4894 43.8957 19.082C44.0733 19.6746 44.3694 20.1783 44.7246 20.6524C45.0798 21.0968 45.5239 21.4524 46.0567 21.7487C46.5896 22.0153 47.1816 22.1635 47.8625 22.1635C48.5434 22.1635 49.1354 22.0153 49.6683 21.7487C50.2011 21.482 50.6452 21.0968 51.0004 20.6227C51.3556 20.1487 51.6221 19.645 51.8293 19.0524C52.0069 18.4598 52.0957 17.8672 52.0957 17.2746C52.0957 16.682 52.0069 16.0302 51.7997 15.4376C51.5925 14.845 51.326 14.3413 50.9708 13.8672C50.6156 13.4227 50.1715 13.0672 49.6387 12.8005C49.1058 12.5339 48.5138 12.4153 47.8625 12.4153C47.2112 12.4153 46.56 12.5635 46.0271 12.8302C45.4943 13.0968 45.0502 13.482 44.695 13.9264C44.3398 14.3709 44.0733 14.9042 43.8957 15.4968C43.7181 16.0894 43.6293 16.682 43.6293 17.2746" fill="#FFBC00"/>
<path d="M73.1731 24.5333H70.4201V18.5184C70.4201 17.6592 70.2721 17.037 69.976 16.6221C69.68 16.237 69.2656 16.0296 68.7623 16.0296C68.2295 16.0296 67.6966 16.237 67.223 16.6518C66.7493 17.0666 66.3941 17.5999 66.1869 18.2814V24.5333H63.4338V18.5184C63.4338 17.6592 63.2858 17.037 62.9897 16.6221C62.6937 16.237 62.2793 16.0296 61.776 16.0296C61.2728 16.0296 60.7399 16.237 60.2367 16.6518C59.763 17.0666 59.4078 17.5999 59.2006 18.2814V24.5629H56.4475V13.837H58.9341V15.8221C59.319 15.111 59.8814 14.5777 60.5623 14.2221C61.2432 13.837 62.0425 13.6592 62.9305 13.6592C63.8186 13.6592 64.5291 13.8666 65.0323 14.311C65.5356 14.7555 65.8316 15.2888 65.9796 15.9407C66.4237 15.1999 66.9565 14.637 67.6374 14.2518C68.3183 13.8666 69.0583 13.6592 69.9168 13.6592C70.5681 13.6592 71.1009 13.7777 71.545 14.0147C71.9594 14.2518 72.285 14.5777 72.5219 14.9925C72.7587 15.3777 72.9067 15.8518 72.9955 16.3555C73.0843 16.8592 73.1139 17.3629 73.1139 17.8962V24.5925L73.1731 24.5333Z" fill="#FFBC00"/>
<path d="M85.0735 24.5333H82.3205V18.5184C82.3205 17.6592 82.1724 17.037 81.8764 16.6221C81.5804 16.237 81.1659 16.0296 80.6331 16.0296C80.3667 16.0296 80.0706 16.0888 79.8042 16.2073C79.5378 16.3258 79.2418 16.474 79.0049 16.6814C78.7385 16.8888 78.5313 17.1258 78.3241 17.3925C78.1168 17.6592 77.9688 17.9555 77.88 18.2814V24.5629H75.127V13.837H77.6136V15.8221C77.9984 15.1407 78.5905 14.6073 79.3306 14.2221C80.0706 13.837 80.9291 13.6592 81.8764 13.6592C82.5573 13.6592 83.0901 13.7777 83.5046 14.0147C83.919 14.2518 84.2446 14.5777 84.4815 14.9925C84.7183 15.3777 84.8663 15.8518 84.9551 16.3555C85.0439 16.8592 85.0735 17.3629 85.0735 17.8962V24.5925V24.5333Z" fill="#FFBC00"/>
<path d="M86.9976 10.9333C86.9976 10.1925 87.6192 9.57031 88.3593 9.57031C89.0994 9.57031 89.721 10.1925 89.721 10.9333C89.721 11.674 89.0994 12.2962 88.3593 12.2962C87.6192 12.2962 86.9976 11.674 86.9976 10.9333ZM86.9976 13.7777H89.7506V24.5036H86.9976V13.7777Z" fill="#FFBC00"/>
<path d="M91.3195 17.1554C91.3195 16.2665 91.4675 15.3776 91.7932 14.5184C92.1188 13.6591 92.5924 12.8887 93.1845 12.2073C93.8062 11.5258 94.5462 10.9628 95.4343 10.548C96.3224 10.1332 97.3289 9.92578 98.4538 9.92578C99.786 9.92578 100.94 10.2221 101.917 10.8147C102.894 11.4073 103.634 12.1776 104.108 13.0962L101.947 14.5776C101.769 14.1628 101.533 13.8369 101.236 13.5406C100.97 13.2739 100.674 13.0369 100.348 12.8887C100.023 12.711 99.6971 12.5924 99.3715 12.5332C99.0163 12.4443 98.6906 12.4147 98.365 12.4147C97.6545 12.4147 97.0329 12.5628 96.5 12.8591C95.9672 13.1554 95.5231 13.511 95.1975 13.985C94.8423 14.4295 94.5758 14.9628 94.3982 15.5554C94.2206 16.148 94.1318 16.711 94.1318 17.2739C94.1318 17.9258 94.2206 18.548 94.4278 19.1406C94.6351 19.7332 94.9311 20.2665 95.2863 20.711C95.6712 21.1554 96.1152 21.511 96.648 21.8073C97.1809 22.0739 97.7433 22.2221 98.365 22.2221C98.6906 22.2221 99.0459 22.1924 99.4011 22.1036C99.7564 22.0147 100.082 21.8962 100.408 21.7184C100.733 21.5406 101.029 21.3036 101.296 21.0369C101.562 20.7702 101.799 20.4147 101.947 20.0295L104.256 21.3628C104.019 21.8962 103.694 22.3999 103.249 22.8147C102.805 23.2295 102.332 23.585 101.799 23.8813C101.266 24.1776 100.674 24.385 100.082 24.5332C99.4603 24.6813 98.8683 24.7702 98.2762 24.7702C97.2401 24.7702 96.2928 24.5628 95.4343 24.1184C94.5758 23.6739 93.8358 23.111 93.2141 22.3999C92.5925 21.6887 92.1188 20.8887 91.7636 19.9999C91.4083 19.111 91.2307 18.1924 91.2307 17.2739" fill="#FFBC00"/>
<path d="M115.298 24.5336H112.545V18.5188C112.545 17.6595 112.397 17.0373 112.071 16.6521C111.746 16.2373 111.302 16.0595 110.739 16.0595C110.502 16.0595 110.236 16.1188 109.969 16.2373C109.703 16.3558 109.437 16.504 109.2 16.7114C108.963 16.9188 108.726 17.1558 108.519 17.4225C108.312 17.6891 108.164 17.9854 108.075 18.3114V24.5928H105.322V9.62988H108.075V15.8521C108.46 15.141 108.993 14.6077 109.673 14.2521C110.354 13.8669 111.094 13.6891 111.923 13.6891C112.634 13.6891 113.196 13.8077 113.611 14.0447C114.055 14.2817 114.38 14.6077 114.647 14.9928C114.884 15.378 115.061 15.8521 115.15 16.3558C115.239 16.8595 115.298 17.3928 115.298 17.9262V24.6225V24.5336Z" fill="#FFBC00"/>
<path d="M120.182 24.7403C119.65 24.7403 119.176 24.6515 118.732 24.4737C118.288 24.2959 117.903 24.0589 117.577 23.7626C117.252 23.4663 116.985 23.1107 116.808 22.6959C116.63 22.2811 116.541 21.8366 116.541 21.3329C116.541 20.8292 116.66 20.3552 116.867 19.9403C117.104 19.4959 117.4 19.1403 117.814 18.8441C118.229 18.5478 118.702 18.3107 119.265 18.1329C119.827 17.9552 120.449 17.8663 121.1 17.8663C121.574 17.8663 122.047 17.8959 122.491 17.9848C122.935 18.0737 123.35 18.1922 123.705 18.3403V17.7181C123.705 17.007 123.498 16.4737 123.113 16.0885C122.699 15.7033 122.107 15.5255 121.307 15.5255C120.745 15.5255 120.182 15.6144 119.62 15.8218C119.087 16.0292 118.525 16.3255 117.933 16.7107L117.104 14.9626C118.495 14.0441 119.975 13.5996 121.574 13.5996C123.172 13.5996 124.327 13.9848 125.156 14.7255C126.014 15.4959 126.429 16.5922 126.429 18.0144V21.3626C126.429 21.6589 126.488 21.8663 126.577 21.9848C126.665 22.1033 126.843 22.1626 127.08 22.1922V24.5329C126.606 24.6218 126.221 24.6811 125.866 24.6811C125.333 24.6811 124.948 24.5626 124.682 24.3255C124.416 24.0885 124.238 23.7922 124.149 23.407L124.09 22.8144C123.616 23.4366 123.024 23.9107 122.343 24.2366C121.663 24.5626 120.922 24.7403 120.153 24.7403M120.952 22.7255C121.426 22.7255 121.87 22.6366 122.284 22.4885C122.699 22.3107 123.024 22.1033 123.261 21.8366C123.557 21.5996 123.705 21.3329 123.705 21.0663V19.8218C123.38 19.7033 123.024 19.6144 122.639 19.5255C122.255 19.4366 121.899 19.407 121.544 19.407C120.834 19.407 120.242 19.5552 119.798 19.8811C119.354 20.207 119.117 20.6218 119.117 21.0959C119.117 21.57 119.294 21.9552 119.65 22.2515C120.005 22.5478 120.449 22.7255 120.952 22.7255Z" fill="#FFBC00"/>
<path d="M134.688 23.9701C134.333 24.1479 133.859 24.2961 133.326 24.4738C132.793 24.6516 132.231 24.7109 131.639 24.7109C131.254 24.7109 130.899 24.6516 130.573 24.5627C130.247 24.4738 129.951 24.3257 129.685 24.0887C129.418 23.8813 129.241 23.6146 129.093 23.259C128.945 22.9331 128.856 22.5183 128.856 22.0442V15.8812H127.435V13.7775H128.856V10.2812H131.609V13.7775H133.859V15.8812H131.609V21.1257C131.609 21.5109 131.698 21.7775 131.905 21.9257C132.112 22.0738 132.349 22.1627 132.645 22.1627C132.941 22.1627 133.208 22.1035 133.474 22.0146C133.74 21.9257 133.977 21.8368 134.125 21.7775L134.688 23.9405V23.9701Z" fill="#FFBC00"/>
</svg>
