<svg xmlns="http://www.w3.org/2000/svg" width="1800" height="2800" viewBox="0 0 1800 2800">
<defs>
  <linearGradient id="warm" x1="0" y1="0" x2="1" y2="1">
    <stop offset="0%" stop-color="#FFD23F"/>
    <stop offset="38%" stop-color="#FF8A3D"/>
    <stop offset="72%" stop-color="#FF5F8C"/>
    <stop offset="100%" stop-color="#250616"/>
  </linearGradient>
  <linearGradient id="darkwarm" x1="0" y1="0" x2="1" y2="1">
    <stop offset="0%" stop-color="#080604"/>
    <stop offset="100%" stop-color="#250616"/>
  </linearGradient>
  <filter id="shadow" x="-20%" y="-20%" width="140%" height="160%">
    <feDropShadow dx="0" dy="24" stdDeviation="20" flood-color="#080604" flood-opacity="0.18"/>
  </filter>
  <filter id="softshadow" x="-20%" y="-20%" width="140%" height="160%">
    <feDropShadow dx="0" dy="12" stdDeviation="12" flood-color="#080604" flood-opacity="0.10"/>
  </filter>
  <style>text{font-family:Inter, Arial, sans-serif}</style>
</defs>
<rect width="1800" height="2800" fill="#FBFAF7"/>
<circle cx="1540" cy="120" r="270" fill="#FFD23F" opacity="0.28"/>
<circle cx="150" cy="2550" r="320" fill="#FF5F8C" opacity="0.13"/>

<rect x="80" y="80" width="1640" height="340" rx="48" fill="url(#darkwarm)" filter="url(#shadow)"/>
<text x="132" y="150.0" fill="#FFFFFF" opacity="1" font-family="Inter, Arial, sans-serif" font-size="64" font-weight="800">OmniChat Design System</text>
<text x="132" y="222.0" fill="#F5F1EA" opacity="0.88" font-family="Inter, Arial, sans-serif" font-size="26" font-weight="500">Kit Figma-ready reconstruído a partir de referências públicas do site</text>
<text x="132" y="257.1" fill="#F5F1EA" opacity="0.88" font-family="Inter, Arial, sans-serif" font-size="26" font-weight="500">omni.chat</text>
<text x="132" y="312.0" fill="#FFEBA6" opacity="1" font-family="Inter, Arial, sans-serif" font-size="24" font-weight="600">Direção visual: chat-commerce, IA conversacional, WhatsApp como canal de receita, calor humano +</text>
<text x="132" y="344.4" fill="#FFEBA6" opacity="1" font-family="Inter, Arial, sans-serif" font-size="24" font-weight="600">performance.</text>
<g transform="translate(1280 140)"><path d="M0 55 C65 10, 160 10, 225 55 S385 100, 450 55" stroke="#FFD23F" stroke-width="18" fill="none" stroke-linecap="round"/><path d="M0 105 C65 60, 160 60, 225 105 S385 150, 450 105" stroke="#FFFFFF" stroke-width="18" fill="none" stroke-linecap="round" opacity=".9"/><text x="0" y="205" fill="#fff" font-size="54" font-weight="800">omni.chat</text></g>
<text x="80" y="500.0" fill="#15110E" opacity="1" font-family="Inter, Arial, sans-serif" font-size="36" font-weight="800">1. Fundamentos da marca</text>
<rect x="80" y="540" width="380" height="200" rx="28" fill="#FFFFFF" stroke="#E9E1D6" filter="url(#softshadow)"/>
<circle cx="124" cy="588" r="16" fill="#FFD23F"/><circle cx="144" cy="588" r="16" fill="#FF8A3D" opacity=".7"/>
<text x="112" y="640.0" fill="#15110E" opacity="1" font-family="Inter, Arial, sans-serif" font-size="24" font-weight="800">Conversacional</text>
<text x="112" y="678.0" fill="#756D65" opacity="1" font-family="Inter, Arial, sans-serif" font-size="18" font-weight="500">Layouts devem parecer vivos:</text>
<text x="112" y="702.3" fill="#756D65" opacity="1" font-family="Inter, Arial, sans-serif" font-size="18" font-weight="500">mensagens, bolhas, fluxos e</text>
<text x="112" y="726.6" fill="#756D65" opacity="1" font-family="Inter, Arial, sans-serif" font-size="18" font-weight="500">jornadas.</text>
<rect x="490" y="540" width="380" height="200" rx="28" fill="#FFFFFF" stroke="#E9E1D6" filter="url(#softshadow)"/>
<circle cx="534" cy="588" r="16" fill="#FFD23F"/><circle cx="554" cy="588" r="16" fill="#FF8A3D" opacity=".7"/>
<text x="522" y="640.0" fill="#15110E" opacity="1" font-family="Inter, Arial, sans-serif" font-size="24" font-weight="800">Performance</text>
<text x="522" y="678.0" fill="#756D65" opacity="1" font-family="Inter, Arial, sans-serif" font-size="18" font-weight="500">Use números grandes, cards de</text>
<text x="522" y="702.3" fill="#756D65" opacity="1" font-family="Inter, Arial, sans-serif" font-size="18" font-weight="500">impacto e CTAs diretos para</text>
<text x="522" y="726.6" fill="#756D65" opacity="1" font-family="Inter, Arial, sans-serif" font-size="18" font-weight="500">conversão.</text>
<rect x="900" y="540" width="380" height="200" rx="28" fill="#FFFFFF" stroke="#E9E1D6" filter="url(#softshadow)"/>
<circle cx="944" cy="588" r="16" fill="#FFD23F"/><circle cx="964" cy="588" r="16" fill="#FF8A3D" opacity=".7"/>
<text x="932" y="640.0" fill="#15110E" opacity="1" font-family="Inter, Arial, sans-serif" font-size="24" font-weight="800">IA com calor humano</text>
<text x="932" y="678.0" fill="#756D65" opacity="1" font-family="Inter, Arial, sans-serif" font-size="18" font-weight="500">Visual tecnológico, mas próximo:</text>
<text x="932" y="702.3" fill="#756D65" opacity="1" font-family="Inter, Arial, sans-serif" font-size="18" font-weight="500">fotos com pessoas, tons quentes e</text>
<text x="932" y="726.6" fill="#756D65" opacity="1" font-family="Inter, Arial, sans-serif" font-size="18" font-weight="500">microcopy clara.</text>
<rect x="1310" y="540" width="380" height="200" rx="28" fill="#FFFFFF" stroke="#E9E1D6" filter="url(#softshadow)"/>
<circle cx="1354" cy="588" r="16" fill="#FFD23F"/><circle cx="1374" cy="588" r="16" fill="#FF8A3D" opacity=".7"/>
<text x="1342" y="640.0" fill="#15110E" opacity="1" font-family="Inter, Arial, sans-serif" font-size="24" font-weight="800">Controle e escala</text>
<text x="1342" y="678.0" fill="#756D65" opacity="1" font-family="Inter, Arial, sans-serif" font-size="18" font-weight="500">UI limpa, módulos de CRM,</text>
<text x="1342" y="702.3" fill="#756D65" opacity="1" font-family="Inter, Arial, sans-serif" font-size="18" font-weight="500">automação, campanhas e funil em</text>
<text x="1342" y="726.6" fill="#756D65" opacity="1" font-family="Inter, Arial, sans-serif" font-size="18" font-weight="500">cards organizados.</text>
<text x="80" y="830.0" fill="#15110E" opacity="1" font-family="Inter, Arial, sans-serif" font-size="36" font-weight="800">2. Paleta de cores</text>
<text x="80" y="870.0" fill="#756D65" opacity="1" font-family="Inter, Arial, sans-serif" font-size="20" font-weight="500">Primária quente com amarelo de ação, base neutra clara e contraste escuro. Verde WhatsApp entra como cor</text>
<text x="80" y="897.0" fill="#756D65" opacity="1" font-family="Inter, Arial, sans-serif" font-size="20" font-weight="500">contextual, não como cor principal.</text>

    <g>
      <rect x="80" y="950" width="164" height="126" rx="24" fill="#FFD23F" stroke="rgba(0,0,0,.08)"/>
      <rect x="80" y="1028" width="164" height="48" rx="16" fill="rgba(255,255,255,.84)"/>
      <text x="96" y="1052.0" fill="#15110E" opacity="1" font-family="Inter, Arial, sans-serif" font-size="18" font-weight="700">Yellow 500</text>
      <text x="96" y="1074.0" fill="#756D65" opacity="1" font-family="Inter, Arial, sans-serif" font-size="14" font-weight="500">#FFD23F</text>
    </g>

    <g>
      <rect x="350" y="950" width="164" height="126" rx="24" fill="#F2B900" stroke="rgba(0,0,0,.08)"/>
      <rect x="350" y="1028" width="164" height="48" rx="16" fill="rgba(255,255,255,.84)"/>
      <text x="366" y="1052.0" fill="#15110E" opacity="1" font-family="Inter, Arial, sans-serif" font-size="18" font-weight="700">Yellow 600</text>
      <text x="366" y="1074.0" fill="#756D65" opacity="1" font-family="Inter, Arial, sans-serif" font-size="14" font-weight="500">#F2B900</text>
    </g>

    <g>
      <rect x="620" y="950" width="164" height="126" rx="24" fill="#FF8A3D" stroke="rgba(0,0,0,.08)"/>
      <rect x="620" y="1028" width="164" height="48" rx="16" fill="rgba(255,255,255,.84)"/>
      <text x="636" y="1052.0" fill="#15110E" opacity="1" font-family="Inter, Arial, sans-serif" font-size="18" font-weight="700">Orange</text>
      <text x="636" y="1074.0" fill="#756D65" opacity="1" font-family="Inter, Arial, sans-serif" font-size="14" font-weight="500">#FF8A3D</text>
    </g>

    <g>
      <rect x="890" y="950" width="164" height="126" rx="24" fill="#FF5F8C" stroke="rgba(0,0,0,.08)"/>
      <rect x="890" y="1028" width="164" height="48" rx="16" fill="rgba(255,255,255,.84)"/>
      <text x="906" y="1052.0" fill="#15110E" opacity="1" font-family="Inter, Arial, sans-serif" font-size="18" font-weight="700">Pink</text>
      <text x="906" y="1074.0" fill="#756D65" opacity="1" font-family="Inter, Arial, sans-serif" font-size="14" font-weight="500">#FF5F8C</text>
    </g>

    <g>
      <rect x="1160" y="950" width="164" height="126" rx="24" fill="#250616" stroke="rgba(0,0,0,.08)"/>
      <rect x="1160" y="1028" width="164" height="48" rx="16" fill="rgba(255,255,255,.84)"/>
      <text x="1176" y="1052.0" fill="#15110E" opacity="1" font-family="Inter, Arial, sans-serif" font-size="18" font-weight="700">Purple 900</text>
      <text x="1176" y="1074.0" fill="#756D65" opacity="1" font-family="Inter, Arial, sans-serif" font-size="14" font-weight="500">#250616</text>
    </g>

    <g>
      <rect x="1430" y="950" width="164" height="126" rx="24" fill="#080604" stroke="rgba(0,0,0,.08)"/>
      <rect x="1430" y="1028" width="164" height="48" rx="16" fill="rgba(255,255,255,.84)"/>
      <text x="1446" y="1052.0" fill="#15110E" opacity="1" font-family="Inter, Arial, sans-serif" font-size="18" font-weight="700">Ink</text>
      <text x="1446" y="1074.0" fill="#756D65" opacity="1" font-family="Inter, Arial, sans-serif" font-size="14" font-weight="500">#080604</text>
    </g>

    <g>
      <rect x="80" y="1115" width="164" height="126" rx="24" fill="#FBFAF7" stroke="rgba(0,0,0,.08)"/>
      <rect x="80" y="1193" width="164" height="48" rx="16" fill="rgba(255,255,255,.84)"/>
      <text x="96" y="1217.0" fill="#15110E" opacity="1" font-family="Inter, Arial, sans-serif" font-size="18" font-weight="700">Cream</text>
      <text x="96" y="1239.0" fill="#756D65" opacity="1" font-family="Inter, Arial, sans-serif" font-size="14" font-weight="500">#FBFAF7</text>
    </g>

    <g>
      <rect x="350" y="1115" width="164" height="126" rx="24" fill="#F5F1EA" stroke="rgba(0,0,0,.08)"/>
      <rect x="350" y="1193" width="164" height="48" rx="16" fill="rgba(255,255,255,.84)"/>
      <text x="366" y="1217.0" fill="#15110E" opacity="1" font-family="Inter, Arial, sans-serif" font-size="18" font-weight="700">Sand 100</text>
      <text x="366" y="1239.0" fill="#756D65" opacity="1" font-family="Inter, Arial, sans-serif" font-size="14" font-weight="500">#F5F1EA</text>
    </g>

    <g>
      <rect x="620" y="1115" width="164" height="126" rx="24" fill="#E9E1D6" stroke="rgba(0,0,0,.08)"/>
      <rect x="620" y="1193" width="164" height="48" rx="16" fill="rgba(255,255,255,.84)"/>
      <text x="636" y="1217.0" fill="#15110E" opacity="1" font-family="Inter, Arial, sans-serif" font-size="18" font-weight="700">Sand 200</text>
      <text x="636" y="1239.0" fill="#756D65" opacity="1" font-family="Inter, Arial, sans-serif" font-size="14" font-weight="500">#E9E1D6</text>
    </g>

    <g>
      <rect x="890" y="1115" width="164" height="126" rx="24" fill="#756D65" stroke="rgba(0,0,0,.08)"/>
      <rect x="890" y="1193" width="164" height="48" rx="16" fill="rgba(255,255,255,.84)"/>
      <text x="906" y="1217.0" fill="#15110E" opacity="1" font-family="Inter, Arial, sans-serif" font-size="18" font-weight="700">Gray 600</text>
      <text x="906" y="1239.0" fill="#756D65" opacity="1" font-family="Inter, Arial, sans-serif" font-size="14" font-weight="500">#756D65</text>
    </g>

    <g>
      <rect x="1160" y="1115" width="164" height="126" rx="24" fill="#25D366" stroke="rgba(0,0,0,.08)"/>
      <rect x="1160" y="1193" width="164" height="48" rx="16" fill="rgba(255,255,255,.84)"/>
      <text x="1176" y="1217.0" fill="#15110E" opacity="1" font-family="Inter, Arial, sans-serif" font-size="18" font-weight="700">WA Green</text>
      <text x="1176" y="1239.0" fill="#756D65" opacity="1" font-family="Inter, Arial, sans-serif" font-size="14" font-weight="500">#25D366</text>
    </g>

    <g>
      <rect x="1430" y="1115" width="164" height="126" rx="24" fill="#FFFFFF" stroke="rgba(0,0,0,.08)"/>
      <rect x="1430" y="1193" width="164" height="48" rx="16" fill="rgba(255,255,255,.84)"/>
      <text x="1446" y="1217.0" fill="#15110E" opacity="1" font-family="Inter, Arial, sans-serif" font-size="18" font-weight="700">White</text>
      <text x="1446" y="1239.0" fill="#756D65" opacity="1" font-family="Inter, Arial, sans-serif" font-size="14" font-weight="500">#FFFFFF</text>
    </g>
<text x="80" y="1355.0" fill="#15110E" opacity="1" font-family="Inter, Arial, sans-serif" font-size="36" font-weight="800">3. Gradientes e tratamento visual</text>
<rect x="80" y="1410" width="520" height="220" rx="36" fill="url(#warm)" filter="url(#softshadow)"/>
<text x="115" y="1488.0" fill="#FFFFFF" opacity="1" font-family="Inter, Arial, sans-serif" font-size="30" font-weight="800">Warm Commerce Gradient</text>
<text x="115" y="1532.0" fill="#FFFFFF" opacity="0.9" font-family="Inter, Arial, sans-serif" font-size="20" font-weight="600">Amarelo → laranja → rosa → roxo escuro</text>
<rect x="650" y="1410" width="520" height="220" rx="36" fill="url(#darkwarm)" filter="url(#softshadow)"/>
<text x="685" y="1488.0" fill="#FFFFFF" opacity="1" font-family="Inter, Arial, sans-serif" font-size="30" font-weight="800">Dark Conversational Panel</text>
<text x="685" y="1532.0" fill="#FFFFFF" opacity="0.9" font-family="Inter, Arial, sans-serif" font-size="20" font-weight="600">Fundo escuro para hero, cards premium e</text>
<text x="685" y="1559.0" fill="#FFFFFF" opacity="0.9" font-family="Inter, Arial, sans-serif" font-size="20" font-weight="600">seções de alta conversão</text>
<g transform="translate(1240 1400)" opacity=".9"><rect width="420" height="240" rx="36" fill="#FFFFFF" stroke="#E9E1D6" filter="url(#softshadow)"/><path d="M54 82 C116 38, 198 38, 260 82 S382 126, 444 82" stroke="#FFD23F" stroke-width="10" fill="none" stroke-linecap="round" opacity=".9"/><path d="M54 122 C116 78, 198 78, 260 122 S382 166, 444 122" stroke="#FF5F8C" stroke-width="10" fill="none" stroke-linecap="round" opacity=".5"/><circle cx="332" cy="170" r="44" fill="#FFF8DD"/><text x="36" y="205" fill="#15110E" font-size="24" font-weight="800">Motivo gráfico</text></g>
<text x="80" y="1730.0" fill="#15110E" opacity="1" font-family="Inter, Arial, sans-serif" font-size="36" font-weight="800">4. Tipografia</text>
<rect x="80" y="1785" width="780" height="320" rx="32" fill="#FFFFFF" stroke="#E9E1D6" filter="url(#softshadow)"/>
<text x="120" y="1850.0" fill="#756D65" opacity="1" font-family="Inter, Arial, sans-serif" font-size="20" font-weight="700">Display / Hero</text>
<text x="120" y="1918.0" fill="#15110E" opacity="1" font-family="Inter, Arial, sans-serif" font-size="56" font-weight="800">Conversas que vendem com IA</text>
<text x="120" y="1990.0" fill="#756D65" opacity="1" font-family="Inter, Arial, sans-serif" font-size="20" font-weight="500">Headlines grandes, peso 700–800, tracking normal,</text>
<text x="120" y="2017.0" fill="#756D65" opacity="1" font-family="Inter, Arial, sans-serif" font-size="20" font-weight="500">line-height apertado.</text>
<rect x="920" y="1785" width="780" height="320" rx="32" fill="#FFFFFF" stroke="#E9E1D6" filter="url(#softshadow)"/>
<text x="960" y="1850.0" fill="#756D65" opacity="1" font-family="Inter, Arial, sans-serif" font-size="20" font-weight="700">Text / Body</text>
<text x="960" y="1910.0" fill="#15110E" opacity="1" font-family="Inter, Arial, sans-serif" font-size="24" font-weight="500">A OmniChat conecta marketing, vendas e</text>
<text x="960" y="1946.0" fill="#15110E" opacity="1" font-family="Inter, Arial, sans-serif" font-size="24" font-weight="500">relacionamento no WhatsApp em uma jornada</text>
<text x="960" y="1982.0" fill="#15110E" opacity="1" font-family="Inter, Arial, sans-serif" font-size="24" font-weight="500">conversacional clara, escalável e orientada por</text>
<text x="960" y="2018.0" fill="#15110E" opacity="1" font-family="Inter, Arial, sans-serif" font-size="24" font-weight="500">dados.</text>
<text x="960" y="2050.0" fill="#756D65" opacity="1" font-family="Inter, Arial, sans-serif" font-size="18" font-weight="500">Sugestão prática: Inter como fonte operacional; substituir pela</text>
<text x="960" y="2074.3" fill="#756D65" opacity="1" font-family="Inter, Arial, sans-serif" font-size="18" font-weight="500">fonte oficial caso tenha acesso ao Figma/brandbook interno.</text>
<text x="80" y="2200.0" fill="#15110E" opacity="1" font-family="Inter, Arial, sans-serif" font-size="36" font-weight="800">5. Componentes base</text>
<rect x="80" y="2260" width="390" height="330" rx="32" fill="#FFFFFF" stroke="#E9E1D6" filter="url(#softshadow)"/>
<text x="115" y="2312.0" fill="#15110E" opacity="1" font-family="Inter, Arial, sans-serif" font-size="24" font-weight="800">Buttons</text>
<rect x="115" y="2350" width="250" height="58" rx="29" fill="#FFD23F"/><text x="147" y="2387" fill="#080604" font-size="18" font-weight="800">Agende uma demo</text>
<rect x="115" y="2430" width="250" height="58" rx="29" fill="#080604"/><text x="160" y="2467" fill="#FFFFFF" font-size="18" font-weight="800">Saiba mais</text>
<rect x="115" y="2510" width="250" height="58" rx="29" fill="#FFFFFF" stroke="#E9E1D6"/><text x="166" y="2547" fill="#15110E" font-size="18" font-weight="800">Login</text>
<rect x="520" y="2260" width="520" height="330" rx="32" fill="#FFFFFF" stroke="#E9E1D6" filter="url(#softshadow)"/>
<text x="555" y="2312.0" fill="#15110E" opacity="1" font-family="Inter, Arial, sans-serif" font-size="24" font-weight="800">Cards e métricas</text>
<rect x="555" y="2350" width="190" height="180" rx="28" fill="#FFF8DD"/><text x="585" y="2410" fill="#15110E" font-size="54" font-weight="800">37x</text><text x="585" y="2455" fill="#756D65" font-size="18" font-weight="600">retorno médio</text><text x="585" y="2482" fill="#756D65" font-size="18" font-weight="600">em campanhas</text>
<rect x="775" y="2350" width="210" height="180" rx="28" fill="#15110E"/><text x="805" y="2405" fill="#FFD23F" font-size="24" font-weight="800">Whizz Agent</text><text x="805" y="2442" fill="#FFFFFF" font-size="18" font-weight="500">Qualifica, responde</text><text x="805" y="2468" fill="#FFFFFF" font-size="18" font-weight="500">e avança a venda</text><rect x="805" y="2500" width="120" height="28" rx="14" fill="#25D366" opacity=".95"/><text x="824" y="2519" fill="#080604" font-size="13" font-weight="800">IA ativa</text>
<rect x="1090" y="2260" width="610" height="330" rx="32" fill="#FFFFFF" stroke="#E9E1D6" filter="url(#softshadow)"/>
<text x="1125" y="2312.0" fill="#15110E" opacity="1" font-family="Inter, Arial, sans-serif" font-size="24" font-weight="800">Formulário / LP</text>
<rect x="1125" y="2352" width="250" height="48" rx="16" fill="#FBFAF7" stroke="#E9E1D6"/><text x="1144" y="2382" fill="#756D65" font-size="15" font-weight="500">Nome e sobrenome</text>
<rect x="1125" y="2414" width="250" height="48" rx="16" fill="#FBFAF7" stroke="#E9E1D6"/><text x="1144" y="2444" fill="#756D65" font-size="15" font-weight="500">E-mail corporativo</text>
<rect x="1125" y="2476" width="250" height="48" rx="16" fill="#FBFAF7" stroke="#E9E1D6"/><text x="1144" y="2506" fill="#756D65" font-size="15" font-weight="500">Empresa</text>
<rect x="1405" y="2352" width="240" height="48" rx="16" fill="#FBFAF7" stroke="#E9E1D6"/><text x="1424" y="2382" fill="#756D65" font-size="15" font-weight="500">Cargo</text>
<rect x="1405" y="2414" width="240" height="48" rx="16" fill="#FBFAF7" stroke="#E9E1D6"/><text x="1424" y="2444" fill="#756D65" font-size="15" font-weight="500">Solução buscada</text>
<rect x="1405" y="2476" width="240" height="54" rx="27" fill="#FFD23F"/><text x="1482" y="2510" fill="#080604" font-size="17" font-weight="800">Enviar</text>
<rect x="80" y="2650" width="1640" height="90" rx="28" fill="#15110E" opacity=".98"/>
<text x="120" y="2707.0" fill="#FFFFFF" opacity="1" font-family="Inter, Arial, sans-serif" font-size="24" font-weight="700">Uso recomendado: LPs de SaaS B2B, seções de produto, páginas de webinar, cards de report, cases e fluxos</text>
<text x="120" y="2737.0" fill="#FFFFFF" opacity="1" font-family="Inter, Arial, sans-serif" font-size="24" font-weight="700">de conversas no WhatsApp.</text>
</svg>